  0
SECTION
  2
HEADER
  9
$ACADVER
  1
AC1024
  9
$ACADMAINTVER
 70
     6
  9
$DWGCODEPAGE
  3
ANSI_1252
  9
$INSBASE
 10
0.0
 20
0.0
 30
0.0
  9
$EXTMIN
 10
1.000000000000000E+20
 20
1.000000000000000E+20
 30
1.000000000000000E+20
  9
$EXTMAX
 10
-1.000000000000000E+20
 20
-1.000000000000000E+20
 30
-1.000000000000000E+20
  9
$LIMMIN
 10
0.0
 20
0.0
  9
$LIMMAX
 10
12.0
 20
9.0
  9
$ORTHOMODE
 70
     0
  9
$REGENMODE
 70
     1
  9
$FILLMODE
 70
     1
  9
$QTEXTMODE
 70
     0
  9
$MIRRTEXT
 70
     1
  9
$LTSCALE
 40
1.0
  9
$ATTMODE
 70
     1
  9
$TEXTSIZE
 40
0.2
  9
$TRACEWID
 40
0.05
  9
$TEXTSTYLE
  7
Standard
  9
$CLAYER
  8
0
  9
$CELTYPE
  6
ByLayer
  9
$CECOLOR
 62
   256
  9
$CELTSCALE
 40
1.0
  9
$DISPSILH
 70
     0
  9
$DIMSCALE
 40
1.0
  9
$DIMASZ
 40
0.18
  9
$DIMEXO
 40
0.0625
  9
$DIMDLI
 40
0.38
  9
$DIMRND
 40
0.0
  9
$DIMDLE
 40
0.0
  9
$DIMEXE
 40
0.18
  9
$DIMTP
 40
0.0
  9
$DIMTM
 40
0.0
  9
$DIMTXT
 40
0.18
  9
$DIMCEN
 40
0.09
  9
$DIMTSZ
 40
0.0
  9
$DIMTOL
 70
     0
  9
$DIMLIM
 70
     0
  9
$DIMTIH
 70
     1
  9
$DIMTOH
 70
     1
  9
$DIMSE1
 70
     0
  9
$DIMSE2
 70
     0
  9
$DIMTAD
 70
     0
  9
$DIMZIN
 70
     0
  9
$DIMBLK
  1

  9
$DIMASO
 70
     1
  9
$DIMSHO
 70
     1
  9
$DIMPOST
  1

  9
$DIMAPOST
  1

  9
$DIMALT
 70
     0
  9
$DIMALTD
 70
     2
  9
$DIMALTF
 40
25.4
  9
$DIMLFAC
 40
1.0
  9
$DIMTOFL
 70
     0
  9
$DIMTVP
 40
0.0
  9
$DIMTIX
 70
     0
  9
$DIMSOXD
 70
     0
  9
$DIMSAH
 70
     0
  9
$DIMBLK1
  1

  9
$DIMBLK2
  1

  9
$DIMSTYLE
  2
Standard
  9
$DIMCLRD
 70
     0
  9
$DIMCLRE
 70
     0
  9
$DIMCLRT
 70
     0
  9
$DIMTFAC
 40
1.0
  9
$DIMGAP
 40
0.09
  9
$DIMJUST
 70
     0
  9
$DIMSD1
 70
     0
  9
$DIMSD2
 70
     0
  9
$DIMTOLJ
 70
     1
  9
$DIMTZIN
 70
     0
  9
$DIMALTZ
 70
     0
  9
$DIMALTTZ
 70
     0
  9
$DIMUPT
 70
     0
  9
$DIMDEC
 70
     4
  9
$DIMTDEC
 70
     4
  9
$DIMALTU
 70
     2
  9
$DIMALTTD
 70
     2
  9
$DIMTXSTY
  7
Standard
  9
$DIMAUNIT
 70
     0
  9
$DIMADEC
 70
     0
  9
$DIMALTRND
 40
0.0
  9
$DIMAZIN
 70
     0
  9
$DIMDSEP
 70
    46
  9
$DIMATFIT
 70
     3
  9
$DIMFRAC
 70
     0
  9
$DIMLDRBLK
  1

  9
$DIMLUNIT
 70
     2
  9
$DIMLWD
 70
    -2
  9
$DIMLWE
 70
    -2
  9
$DIMTMOVE
 70
     0
  9
$DIMFXL
 40
1.0
  9
$DIMFXLON
 70
     0
  9
$DIMJOGANG
 40
0.7853981633974483
  9
$DIMTFILL
 70
     0
  9
$DIMTFILLCLR
 70
     0
  9
$DIMARCSYM
 70
     0
  9
$DIMLTYPE
  6

  9
$DIMLTEX1
  6

  9
$DIMLTEX2
  6

  9
$DIMTXTDIRECTION
 70
     0
  9
$LUNITS
 70
     2
  9
$LUPREC
 70
     4
  9
$SKETCHINC
 40
0.1
  9
$FILLETRAD
 40
0.5
  9
$AUNITS
 70
     0
  9
$AUPREC
 70
     0
  9
$MENU
  1
.
  9
$ELEVATION
 40
0.0
  9
$PELEVATION
 40
0.0
  9
$THICKNESS
 40
0.0
  9
$LIMCHECK
 70
     0
  9
$CHAMFERA
 40
0.5
  9
$CHAMFERB
 40
0.5
  9
$CHAMFERC
 40
1.0
  9
$CHAMFERD
 40
0.0
  9
$SKPOLY
 70
     0
  9
$TDCREATE
 40
2459629.749608495
  9
$TDUCREATE
 40
2459629.707941829
  9
$TDUPDATE
 40
2459629.74960853
  9
$TDUUPDATE
 40
2459629.707941863
  9
$TDINDWG
 40
0.0000000116
  9
$TDUSRTIMER
 40
0.0000000116
  9
$USRTIMER
 70
     1
  9
$ANGBASE
 50
0.0
  9
$ANGDIR
 70
     0
  9
$PDMODE
 70
     0
  9
$PDSIZE
 40
0.0
  9
$PLINEWID
 40
0.0
  9
$SPLFRAME
 70
     0
  9
$SPLINETYPE
 70
     6
  9
$SPLINESEGS
 70
     8
  9
$HANDSEED
  5
4B
  9
$SURFTAB1
 70
     6
  9
$SURFTAB2
 70
     6
  9
$SURFTYPE
 70
     6
  9
$SURFU
 70
     6
  9
$SURFV
 70
     6
  9
$UCSBASE
  2

  9
$UCSNAME
  2

  9
$UCSORG
 10
0.0
 20
0.0
 30
0.0
  9
$UCSXDIR
 10
1.0
 20
0.0
 30
0.0
  9
$UCSYDIR
 10
0.0
 20
1.0
 30
0.0
  9
$UCSORTHOREF
  2

  9
$UCSORTHOVIEW
 70
     0
  9
$UCSORGTOP
 10
0.0
 20
0.0
 30
0.0
  9
$UCSORGBOTTOM
 10
0.0
 20
0.0
 30
0.0
  9
$UCSORGLEFT
 10
0.0
 20
0.0
 30
0.0
  9
$UCSORGRIGHT
 10
0.0
 20
0.0
 30
0.0
  9
$UCSORGFRONT
 10
0.0
 20
0.0
 30
0.0
  9
$UCSORGBACK
 10
0.0
 20
0.0
 30
0.0
  9
$PUCSBASE
  2

  9
$PUCSNAME
  2

  9
$PUCSORG
 10
0.0
 20
0.0
 30
0.0
  9
$PUCSXDIR
 10
1.0
 20
0.0
 30
0.0
  9
$PUCSYDIR
 10
0.0
 20
1.0
 30
0.0
  9
$PUCSORTHOREF
  2

  9
$PUCSORTHOVIEW
 70
     0
  9
$PUCSORGTOP
 10
0.0
 20
0.0
 30
0.0
  9
$PUCSORGBOTTOM
 10
0.0
 20
0.0
 30
0.0
  9
$PUCSORGLEFT
 10
0.0
 20
0.0
 30
0.0
  9
$PUCSORGRIGHT
 10
0.0
 20
0.0
 30
0.0
  9
$PUCSORGFRONT
 10
0.0
 20
0.0
 30
0.0
  9
$PUCSORGBACK
 10
0.0
 20
0.0
 30
0.0
  9
$USERI1
 70
     0
  9
$USERI2
 70
     0
  9
$USERI3
 70
     0
  9
$USERI4
 70
     0
  9
$USERI5
 70
     0
  9
$USERR1
 40
0.0
  9
$USERR2
 40
0.0
  9
$USERR3
 40
0.0
  9
$USERR4
 40
0.0
  9
$USERR5
 40
0.0
  9
$WORLDVIEW
 70
     1
  9
$SHADEDGE
 70
     3
  9
$SHADEDIF
 70
    70
  9
$TILEMODE
 70
     1
  9
$MAXACTVP
 70
    64
  9
$PINSBASE
 10
0.0
 20
0.0
 30
0.0
  9
$PLIMCHECK
 70
     0
  9
$PEXTMIN
 10
1.000000000000000E+20
 20
1.000000000000000E+20
 30
1.000000000000000E+20
  9
$PEXTMAX
 10
-1.000000000000000E+20
 20
-1.000000000000000E+20
 30
-1.000000000000000E+20
  9
$PLIMMIN
 10
0.0
 20
0.0
  9
$PLIMMAX
 10
12.0
 20
9.0
  9
$UNITMODE
 70
     0
  9
$VISRETAIN
 70
     1
  9
$PLINEGEN
 70
     0
  9
$PSLTSCALE
 70
     1
  9
$TREEDEPTH
 70
  3020
  9
$CMLSTYLE
  2
Standard
  9
$CMLJUST
 70
     0
  9
$CMLSCALE
 40
1.0
  9
$PROXYGRAPHICS
 70
     1
  9
$MEASUREMENT
 70
     0
  9
$CELWEIGHT
370
    -1
  9
$ENDCAPS
280
     0
  9
$JOINSTYLE
280
     0
  9
$LWDISPLAY
290
     1
  9
$INSUNITS
 70
     1
  9
$HYPERLINKBASE
  1

  9
$STYLESHEET
  1

  9
$XEDIT
290
     1
  9
$CEPSNTYPE
380
     0
  9
$PSTYLEMODE
290
     1
  9
$FINGERPRINTGUID
  2
{6521B8FB-C573-4F19-8E29-7AE8C44AFC8C}
  9
$VERSIONGUID
  2
{FAEB1C32-E019-11D5-929B-00C0DF256EC4}
  9
$EXTNAMES
290
     1
  9
$PSVPSCALE
 40
0.0
  9
$OLESTARTUP
290
     0
  9
$SORTENTS
280
   127
  9
$INDEXCTL
280
     0
  9
$HIDETEXT
280
     1
  9
$XCLIPFRAME
280
     2
  9
$HALOGAP
280
     0
  9
$OBSCOLOR
 70
   257
  9
$OBSLTYPE
280
     0
  9
$INTERSECTIONDISPLAY
280
     0
  9
$INTERSECTIONCOLOR
 70
   257
  9
$DIMASSOC
280
     2
  9
$PROJECTNAME
  1

  9
$CAMERADISPLAY
290
     0
  9
$LENSLENGTH
 40
50.0
  9
$CAMERAHEIGHT
 40
0.0
  9
$STEPSPERSEC
 40
2.0
  9
$STEPSIZE
 40
6.0
  9
$3DDWFPREC
 40
2.0
  9
$PSOLWIDTH
 40
0.25
  9
$PSOLHEIGHT
 40
4.0
  9
$LOFTANG1
 40
1.570796326794897
  9
$LOFTANG2
 40
1.570796326794897
  9
$LOFTMAG1
 40
0.0
  9
$LOFTMAG2
 40
0.0
  9
$LOFTPARAM
 70
     7
  9
$LOFTNORMALS
280
     1
  9
$LATITUDE
 40
37.795
  9
$LONGITUDE
 40
-122.394
  9
$NORTHDIRECTION
 40
0.0
  9
$TIMEZONE
 70
 -8000
  9
$LIGHTGLYPHDISPLAY
280
     1
  9
$TILEMODELIGHTSYNCH
280
     1
  9
$CMATERIAL
347
3C
  9
$SOLIDHIST
280
     1
  9
$SHOWHIST
280
     1
  9
$DWFFRAME
280
     2
  9
$DGNFRAME
280
     2
  9
$REALWORLDSCALE
290
     1
  9
$INTERFERECOLOR
 62
   256
  9
$CSHADOW
280
     0
  9
$SHADOWPLANELOCATION
 40
0.0
  0
ENDSEC
  0
SECTION
  2
CLASSES
  0
CLASS
  1
ACDBDICTIONARYWDFLT
  2
AcDbDictionaryWithDefault
  3
ObjectDBX Classes
 90
        0
 91
        4
280
     0
281
     0
  0
CLASS
  1
VISUALSTYLE
  2
AcDbVisualStyle
  3
ObjectDBX Classes
 90
     4095
 91
        4
280
     0
281
     0
  0
CLASS
  1
MATERIAL
  2
AcDbMaterial
  3
ObjectDBX Classes
 90
     1153
 91
        4
280
     0
281
     0
  0
CLASS
  1
SUN
  2
AcDbSun
  3
SCENEOE
 90
     1024
 91
        4
280
     0
281
     0
  0
ENDSEC
  0
SECTION
  2
TABLES
  0
TABLE
  2
VPORT
  5
8
330
0
100
AcDbSymbolTable
 70
     1
  0
VPORT
  5
29
330
8
100
AcDbSymbolTableRecord
100
AcDbViewportTableRecord
  2
*Active
 70
     0
 10
0.0
 20
0.0
 11
1.0
 21
1.0
 12
0.0
 22
0.0
 13
0.0
 23
0.0
 14
0.5
 24
0.5
 15
0.5
 25
0.5
 16
0.0
 26
0.0
 36
1.0
 17
299.9999999249995
 27
-299.9999999249995
 37
0.0
 40
599.999999849999
 41
1.0
 42
50.0
 43
0.0
 44
0.0
 50
0.0
 51
0.0
 71
     0
 72
   100
 73
     1
 74
     3
 75
     0
 76
     0
 77
     0
 78
     0
281
     0
 65
     1
110
0.0
120
0.0
130
0.0
111
1.0
121
0.0
131
0.0
112
0.0
122
1.0
132
0.0
 79
     0
146
0.0
 60
     3
 61
     5
292
     1
282
     1
141
0.0
142
0.0
 63
   250
361
3F
  0
ENDTAB
  0
TABLE
  2
LTYPE
  5
5
330
0
100
AcDbSymbolTable
 70
     1
  0
LTYPE
  5
14
330
5
100
AcDbSymbolTableRecord
100
AcDbLinetypeTableRecord
  2
ByBlock
 70
     0
  3

 72
    65
 73
     0
 40
0.0
  0
LTYPE
  5
15
330
5
100
AcDbSymbolTableRecord
100
AcDbLinetypeTableRecord
  2
ByLayer
 70
     0
  3

 72
    65
 73
     0
 40
0.0
  0
LTYPE
  5
16
330
5
100
AcDbSymbolTableRecord
100
AcDbLinetypeTableRecord
  2
Continuous
 70
     0
  3
Solid line
 72
    65
 73
     0
 40
0.0
  0
ENDTAB
  0
TABLE
  2
LAYER
  5
2
330
0
100
AcDbSymbolTable
 70
     2
  0
LAYER
  5
10
330
2
100
AcDbSymbolTableRecord
100
AcDbLayerTableRecord
  2
0
 70
     0
 62
     7
  6
Continuous
370
    -3
390
F
347
3E
  0
LAYER
  5
40
330
2
100
AcDbSymbolTableRecord
100
AcDbLayerTableRecord
  2
Calque 1
 70
     0
 62
     7
  6
Continuous
370
    -3
390
F
347
3E
  0
ENDTAB
  0
TABLE
  2
STYLE
  5
3
330
0
100
AcDbSymbolTable
 70
     1
  0
STYLE
  5
11
330
3
100
AcDbSymbolTableRecord
100
AcDbTextStyleTableRecord
  2
Standard
 70
     0
 40
0.0
 41
1.0
 50
0.0
 71
     0
 42
0.2
  3
txt
  4

  0
ENDTAB
  0
TABLE
  2
VIEW
  5
6
330
0
100
AcDbSymbolTable
 70
     0
  0
ENDTAB
  0
TABLE
  2
UCS
  5
7
330
0
100
AcDbSymbolTable
 70
     0
  0
ENDTAB
  0
TABLE
  2
APPID
  5
9
330
0
100
AcDbSymbolTable
 70
     1
  0
APPID
  5
12
330
9
100
AcDbSymbolTableRecord
100
AcDbRegAppTableRecord
  2
ACAD
 70
     0
  0
ENDTAB
  0
TABLE
  2
DIMSTYLE
  5
A
330
0
100
AcDbSymbolTable
 70
     1
100
AcDbDimStyleTable
  0
DIMSTYLE
105
27
330
A
100
AcDbSymbolTableRecord
100
AcDbDimStyleTableRecord
  2
Standard
 70
     0
178
     0
340
11
  0
ENDTAB
  0
TABLE
  2
BLOCK_RECORD
  5
1
330
0
100
AcDbSymbolTable
 70
     1
  0
BLOCK_RECORD
  5
1F
330
1
100
AcDbSymbolTableRecord
100
AcDbBlockTableRecord
  2
*Model_Space
340
22
 70
     0
280
     1
281
     0
  0
BLOCK_RECORD
  5
1B
330
1
100
AcDbSymbolTableRecord
100
AcDbBlockTableRecord
  2
*Paper_Space
340
1E
 70
     0
280
     1
281
     0
  0
BLOCK_RECORD
  5
23
330
1
100
AcDbSymbolTableRecord
100
AcDbBlockTableRecord
  2
*Paper_Space0
340
26
 70
     0
280
     1
281
     0
  0
ENDTAB
  0
ENDSEC
  0
SECTION
  2
BLOCKS
  0
BLOCK
  5
20
330
1F
100
AcDbEntity
  8
0
100
AcDbBlockBegin
  2
*Model_Space
 70
     0
 10
0.0
 20
0.0
 30
0.0
  3
*Model_Space
  1

  0
ENDBLK
  5
21
330
1F
100
AcDbEntity
  8
0
100
AcDbBlockEnd
  0
BLOCK
  5
1C
330
1B
100
AcDbEntity
 67
     1
  8
0
100
AcDbBlockBegin
  2
*Paper_Space
 70
     0
 10
0.0
 20
0.0
 30
0.0
  3
*Paper_Space
  1

  0
ENDBLK
  5
1D
330
1B
100
AcDbEntity
 67
     1
  8
0
100
AcDbBlockEnd
  0
BLOCK
  5
24
330
23
100
AcDbEntity
  8
0
100
AcDbBlockBegin
  2
*Paper_Space0
 70
     0
 10
0.0
 20
0.0
 30
0.0
  3
*Paper_Space0
  1

  0
ENDBLK
  5
25
330
23
100
AcDbEntity
  8
0
100
AcDbBlockEnd
  0
ENDSEC
  0
SECTION
  2
ENTITIES
  0
SPLINE
  5
41
330
1F
100
AcDbEntity
  8
Calque 1
 62
     7
420
 16777215
370
   158
100
AcDbSpline
210
0.0
220
0.0
230
1.0
 70
    11
 71
     3
 72
    71
 73
    67
 74
     0
 42
0.0000000001
 43
0.0000000001
 12
1.0
 22
0.0
 32
0.0
 13
1.0
 23
0.0
 33
0.0
 40
0.0
 40
0.0
 40
0.0
 40
0.0
 40
1.0
 40
1.0
 40
1.0
 40
2.0
 40
2.0
 40
2.0
 40
3.0
 40
3.0
 40
3.0
 40
4.0
 40
4.0
 40
4.0
 40
5.0
 40
5.0
 40
5.0
 40
6.0
 40
6.0
 40
6.0
 40
7.0
 40
7.0
 40
7.0
 40
8.0
 40
8.0
 40
8.0
 40
9.0
 40
9.0
 40
9.0
 40
10.0
 40
10.0
 40
10.0
 40
11.0
 40
11.0
 40
11.0
 40
12.0
 40
12.0
 40
12.0
 40
13.0
 40
13.0
 40
13.0
 40
14.0
 40
14.0
 40
14.0
 40
15.0
 40
15.0
 40
15.0
 40
16.0
 40
16.0
 40
16.0
 40
17.0
 40
17.0
 40
17.0
 40
18.0
 40
18.0
 40
18.0
 40
19.0
 40
19.0
 40
19.0
 40
20.0
 40
20.0
 40
20.0
 40
21.0
 40
21.0
 40
21.0
 40
22.0
 40
22.0
 40
22.0
 40
22.0
 10
121.2085171327646
 20
-286.9599155751223
 30
0.0
 10
121.6453895412168
 20
-287.1645141683974
 30
0.0
 10
121.824698912127
 20
-287.2825675762174
 30
0.0
 10
122.0215329292731
 20
-287.3357706241574
 30
0.0
 10
129.6352722973206
 20
-289.393228281102
 30
0.0
 10
131.6306334930235
 20
-295.8315189430091
 30
0.0
 10
130.4771966878436
 20
-302.650873753271
 30
0.0
 10
129.4722194379432
 20
-308.5925636148486
 30
0.0
 10
125.5577265750826
 20
-311.7743868223313
 30
0.0
 10
119.9191509187211
 20
-312.984731775969
 30
0.0
 10
117.7513965637298
 20
-313.4500194512663
 30
0.0
 10
115.4921219020066
 20
-313.6516135452956
 30
0.0
 10
113.2711961217746
 20
-313.6767420842619
 30
0.0
 10
105.8703570621681
 20
-313.7604583581038
 30
0.0
 10
98.46782553050197
 20
-313.6844484296869
 30
0.0
 10
91.06639142307566
 20
-313.7352127607228
 30
0.0
 10
89.82415226527228
 20
-313.7437190052708
 30
0.0
 10
89.40681766690157
 20
-313.3951580758188
 30
0.0
 10
89.41373509790357
 20
-312.1187531587074
 30
0.0
 10
89.46106944540725
 20
-303.3859810666533
 30
0.0
 10
89.46677727096962
 20
-294.6526822117532
 30
0.0
 10
89.40959902776302
 20
-285.9200271780997
 30
0.0
 10
89.40047699334961
 20
-284.5269930638587
 30
0.0
 10
89.9158871794072
 20
-284.2453700359371
 30
0.0
 10
91.18026626218351
 20
-284.2558272540131
 30
0.0
 10
97.51660256008694
 20
-284.3083669709644
 30
0.0
 10
103.8541399278901
 20
-284.3246966193424
 30
0.0
 10
110.1900555465007
 20
-284.2508132520599
 30
0.0
 10
112.0385204068088
 20
-284.2292354848972
 30
0.0
 10
113.9461120480729
 20
-284.0995152554166
 30
0.0
 10
115.7163305579064
 20
-283.6158103900923
 30
0.0
 10
119.5010371491087
 20
-282.5816188357628
 30
0.0
 10
121.292038435905
 20
-279.2790498769833
 30
0.0
 10
120.5949594167556
 20
-275.1253687192162
 30
0.0
 10
120.0823110817901
 20
-272.0706514366878
 30
0.0
 10
118.4238932792028
 20
-270.2842815506543
 30
0.0
 10
115.3214017050685
 20
-269.7126853281485
 30
0.0
 10
113.6554360622206
 20
-269.4057776833777
 30
0.0
 10
111.9409301245076
 20
-269.2103486656624
 30
0.0
 10
110.2497139685458
 20
-269.2195572606788
 30
0.0
 10
103.9237532074435
 20
-269.2539529238813
 30
0.0
 10
97.5970681463249
 20
-269.3477167113565
 30
0.0
 10
91.27370218392483
 20
-269.5268160806841
 30
0.0
 10
89.74119796465499
 20
-269.5702447512922
 30
0.0
 10
89.30549370337549
 20
-269.0396579922127
 30
0.0
 10
89.41759803132912
 20
-267.6119940979307
 30
0.0
 10
89.51734292327217
 20
-266.3417347474324
 30
0.0
 10
89.3504356659674
 20
-265.047575971266
 30
0.0
 10
89.49135103909259
 20
-263.7851790440511
 30
0.0
 10
89.53933042822096
 20
-263.3553795771351
 30
0.0
 10
90.16812770922827
 20
-262.6438595336332
 30
0.0
 10
90.52779266218842
 20
-262.6461616823792
 30
0.0
 10
99.30749410443724
 20
-262.702252171134
 30
0.0
 10
108.0882954096999
 20
-262.7778133756419
 30
0.0
 10
116.8644607070865
 20
-263.0144664638708
 30
0.0
 10
118.404305475328
 20
-263.0559831804376
 30
0.0
 10
120.0163778316124
 20
-263.6373537802919
 30
0.0
 10
121.4363814308273
 20
-264.3063035815421
 30
0.0
 10
125.8281806897178
 20
-266.3751549238626
 30
0.0
 10
128.3635526655229
 20
-269.795582193088
 30
0.0
 10
128.5803939465081
 20
-274.7812169898998
 30
0.0
 10
128.8076192997547
 20
-280.0056509458304
 30
0.0
 10
126.8927456387763
 20
-284.0061221529136
 30
0.0
 10
122.1082001819708
 20
-286.4308115559281
 30
0.0
 10
121.8784483141582
 20
-286.5472261460057
 30
0.0
 10
121.6628068837474
 20
-286.6914811282082
 30
0.0
 10
121.2085171327646
 20
-286.9599155751223
 30
0.0
  0
SPLINE
  5
42
330
1F
100
AcDbEntity
  8
Calque 1
 62
     7
420
 16777215
370
   158
100
AcDbSpline
210
0.0
220
0.0
230
1.0
 70
    11
 71
     3
 72
    35
 73
    31
 74
     0
 42
0.0000000001
 43
0.0000000001
 12
1.0
 22
0.0
 32
0.0
 13
1.0
 23
0.0
 33
0.0
 40
0.0
 40
0.0
 40
0.0
 40
0.0
 40
1.0
 40
1.0
 40
1.0
 40
2.0
 40
2.0
 40
2.0
 40
3.0
 40
3.0
 40
3.0
 40
4.0
 40
4.0
 40
4.0
 40
5.0
 40
5.0
 40
5.0
 40
6.0
 40
6.0
 40
6.0
 40
7.0
 40
7.0
 40
7.0
 40
8.0
 40
8.0
 40
8.0
 40
9.0
 40
9.0
 40
9.0
 40
10.0
 40
10.0
 40
10.0
 40
10.0
 10
106.493781841715
 20
-307.130016314001
 30
0.0
 10
108.3583349418306
 20
-307.130016314001
 30
0.0
 10
110.2389592106981
 20
-307.2834994009871
 30
0.0
 10
112.0832855621635
 20
-307.0903530222872
 30
0.0
 10
114.2846698742357
 20
-306.8598064811864
 30
0.0
 10
116.5465929865005
 20
-306.5944935919276
 30
0.0
 10
118.6167912012867
 20
-305.8707994736292
 30
0.0
 10
121.5631753923141
 20
-304.8407830026239
 30
0.0
 10
122.7884178868923
 20
-302.3270121485888
 30
0.0
 10
122.8040598408166
 20
-299.3208155775741
 30
0.0
 10
122.8201261321494
 20
-296.2338291930167
 30
0.0
 10
122.0143923553548
 20
-293.3507975804603
 30
0.0
 10
118.8577465515655
 20
-292.0995407120458
 30
0.0
 10
116.9722716674077
 20
-291.3521227557094
 30
0.0
 10
114.8527966641615
 20
-290.9486224118832
 30
0.0
 10
112.8198401516548
 20
-290.8693933771467
 30
0.0
 10
108.138767171263
 20
-290.6869383333637
 30
0.0
 10
103.4460322289162
 20
-290.8212238408796
 30
0.0
 10
98.7586332072737
 20
-290.7708692142718
 30
0.0
 10
97.6193214717938
 20
-290.758656120018
 30
0.0
 10
97.3002612168498
 20
-291.2118477594795
 30
0.0
 10
97.31027704234427
 20
-292.2899752375313
 30
0.0
 10
97.35184991243563
 20
-296.7645135007612
 30
0.0
 10
97.36062442916717
 20
-301.2400662702175
 30
0.0
 10
97.3045801910406
 20
-305.7143118874116
 30
0.0
 10
97.28987958325388
 20
-306.8876078538727
 30
0.0
 10
97.76957592546518
 20
-307.1666555967412
 30
0.0
 10
98.82275204931767
 20
-307.1474385075443
 30
0.0
 10
101.3790019122027
 20
-307.100771220906
 30
0.0
 10
103.9366808653402
 20
-307.132279443291
 30
0.0
 10
106.493781841715
 20
-307.130016314001
 30
0.0
  0
SPLINE
  5
43
330
1F
100
AcDbEntity
  8
Calque 1
 62
     7
420
 16777215
370
   158
100
AcDbSpline
210
0.0
220
0.0
230
1.0
 70
    11
 71
     3
 72
    32
 73
    28
 74
     0
 42
0.0000000001
 43
0.0000000001
 12
1.0
 22
0.0
 32
0.0
 13
1.0
 23
0.0
 33
0.0
 40
0.0
 40
0.0
 40
0.0
 40
0.0
 40
1.0
 40
1.0
 40
1.0
 40
2.0
 40
2.0
 40
2.0
 40
3.0
 40
3.0
 40
3.0
 40
4.0
 40
4.0
 40
4.0
 40
5.0
 40
5.0
 40
5.0
 40
6.0
 40
6.0
 40
6.0
 40
7.0
 40
7.0
 40
7.0
 40
8.0
 40
8.0
 40
8.0
 40
9.0
 40
9.0
 40
9.0
 40
9.0
 10
534.163939053293
 20
-288.2760813326041
 30
0.0
 10
534.0839099980483
 20
-292.7288857508167
 30
0.0
 10
533.3788270979001
 20
-297.026626793463
 30
0.0
 10
531.5264139489518
 20
-301.0530264386521
 30
0.0
 10
528.1543852191103
 20
-308.3825998443987
 30
0.0
 10
522.5249206229122
 20
-312.9181645594107
 30
0.0
 10
514.4973937756027
 20
-314.2802562335879
 30
0.0
 10
508.9818662058941
 20
-315.2161187224327
 30
0.0
 10
503.5549129683899
 20
-314.9276282676902
 30
0.0
 10
498.3619208304557
 20
-312.673902674423
 30
0.0
 10
492.4109353102504
 20
-310.0911844161243
 30
0.0
 10
488.3936796386857
 20
-305.5787192276322
 30
0.0
 10
486.2547460837604
 20
-299.5549324002283
 30
0.0
 10
483.5834690863012
 20
-292.0319589892309
 30
0.0
 10
483.4851008521335
 20
-284.3118592135758
 30
0.0
 10
486.3047691207407
 20
-276.852468029651
 30
0.0
 10
489.9736584318774
 20
-267.1464332863647
 30
0.0
 10
497.3056621637734
 20
-262.2422126146233
 30
0.0
 10
507.6768970574328
 20
-261.646190203615
 30
0.0
 10
518.9430448628143
 20
-260.998779150033
 30
0.0
 10
527.9815287029111
 20
-266.4303674745279
 30
0.0
 10
532.0056127921586
 20
-276.566299233433
 30
0.0
 10
532.5718642059128
 20
-277.9926364657062
 30
0.0
 10
533.0436883580381
 20
-279.4903988386395
 30
0.0
 10
533.2973153005287
 20
-280.9991451924853
 30
0.0
 10
533.7017527249913
 20
-283.4053588762516
 30
0.0
 10
533.8863541196092
 20
-285.8485435082492
 30
0.0
 10
534.163939053293
 20
-288.2760813326041
 30
0.0
  0
SPLINE
  5
44
330
1F
100
AcDbEntity
  8
Calque 1
 62
     7
420
 16777215
370
   158
100
AcDbSpline
210
0.0
220
0.0
230
1.0
 70
    11
 71
     3
 72
    23
 73
    19
 74
     0
 42
0.0000000001
 43
0.0000000001
 12
1.0
 22
0.0
 32
0.0
 13
1.0
 23
0.0
 33
0.0
 40
0.0
 40
0.0
 40
0.0
 40
0.0
 40
1.0
 40
1.0
 40
1.0
 40
2.0
 40
2.0
 40
2.0
 40
3.0
 40
3.0
 40
3.0
 40
4.0
 40
4.0
 40
4.0
 40
5.0
 40
5.0
 40
5.0
 40
6.0
 40
6.0
 40
6.0
 40
6.0
 10
509.2531689953064
 20
-307.6906090458446
 30
0.0
 10
517.3682946865952
 20
-307.6646610979977
 30
0.0
 10
523.1014731925055
 20
-303.3984477874619
 30
0.0
 10
525.0261895298461
 20
-295.8690166541223
 30
0.0
 10
526.2596749000405
 20
-291.0435762932026
 30
0.0
 10
526.3171506671733
 20
-286.1862765346698
 30
0.0
 10
525.1753611915738
 20
-281.3227726803381
 30
0.0
 10
523.4203798080612
 20
-273.8473054746061
 30
0.0
 10
518.9357872302933
 20
-269.6219260398806
 30
0.0
 10
511.3450449975023
 20
-268.795201009883
 30
0.0
 10
503.1516851493541
 20
-267.9028452306102
 30
0.0
 10
496.5442350628789
 20
-271.2402390667464
 30
0.0
 10
493.6985407680228
 20
-279.4818925940742
 30
0.0
 10
492.1716285351089
 20
-283.9042423155855
 30
0.0
 10
492.1051002371148
 20
-288.4378170375942
 30
0.0
 10
492.6973776771397
 20
-293.045275126888
 30
0.0
 10
493.8586378980258
 20
-302.0791799820797
 30
0.0
 10
500.1786311098305
 20
-307.7196200221218
 30
0.0
 10
509.2531689953064
 20
-307.6906090458446
 30
0.0
  0
SPLINE
  5
45
330
1F
100
AcDbEntity
  8
Calque 1
 62
     7
420
 16777215
370
   158
100
AcDbSpline
210
0.0
220
0.0
230
1.0
 70
    11
 71
     3
 72
    47
 73
    43
 74
     0
 42
0.0000000001
 43
0.0000000001
 12
1.0
 22
0.0
 32
0.0
 13
1.0
 23
0.0
 33
0.0
 40
0.0
 40
0.0
 40
0.0
 40
0.0
 40
1.0
 40
1.0
 40
1.0
 40
2.0
 40
2.0
 40
2.0
 40
3.0
 40
3.0
 40
3.0
 40
4.0
 40
4.0
 40
4.0
 40
5.0
 40
5.0
 40
5.0
 40
6.0
 40
6.0
 40
6.0
 40
7.0
 40
7.0
 40
7.0
 40
8.0
 40
8.0
 40
8.0
 40
9.0
 40
9.0
 40
9.0
 40
10.0
 40
10.0
 40
10.0
 40
11.0
 40
11.0
 40
11.0
 40
12.0
 40
12.0
 40
12.0
 40
13.0
 40
13.0
 40
13.0
 40
14.0
 40
14.0
 40
14.0
 40
14.0
 10
396.3462115963343
 20
-312.0366011067252
 30
0.0
 10
396.8483493066408
 20
-312.7349485293893
 30
0.0
 10
396.3486616531923
 20
-313.7101657948034
 30
0.0
 10
395.4885280882445
 20
-313.7119356711928
 30
0.0
 10
394.0355664558375
 20
-313.7149253958045
 30
0.0
 10
392.7295854044862
 20
-313.7247693021873
 30
0.0
 10
391.3952650849938
 20
-313.7572782712581
 30
0.0
 10
388.1088874593842
 20
-313.8475763802393
 30
0.0
 10
386.1529912811503
 20
-312.8719069771914
 30
0.0
 10
384.3253360237434
 20
-310.1090943530569
 30
0.0
 10
378.9898369092539
 20
-302.233489857602
 30
0.0
 10
373.1958541208441
 20
-293.9801231094743
 30
0.0
 10
367.5409878108694
 20
-285.9776589359521
 30
0.0
 10
366.8506738026831
 20
-285.0007479642147
 30
0.0
 10
366.9160705343137
 20
-284.3943268643432
 30
0.0
 10
367.6376391857254
 20
-283.4978350212008
 30
0.0
 10
372.8995110962263
 20
-276.9603872920252
 30
0.0
 10
378.1257016841124
 20
-270.3938994115164
 30
0.0
 10
383.316110392924
 20
-263.7995727858078
 30
0.0
 10
383.9512063294305
 20
-262.9926941219203
 30
0.0
 10
384.9307172788296
 20
-262.5377154580782
 30
0.0
 10
385.9570913406215
 20
-262.5686716178286
 30
0.0
 10
388.0099510307678
 20
-262.6305873022552
 30
0.0
 10
390.0653199761832
 20
-262.6094034009176
 30
0.0
 10
392.3374466801005
 20
-262.598009398056
 30
0.0
 10
393.1381762741448
 20
-262.5939939902574
 30
0.0
 10
393.6009319525887
 20
-263.5239807394197
 30
0.0
 10
393.0968792917746
 20
-264.1461653963635
 30
0.0
 10
393.0934073186481
 20
-264.1504510763676
 30
0.0
 10
393.0899255064015
 20
-264.1547402562895
 30
0.0
 10
393.0864335239965
 20
-264.1590333313527
 30
0.0
 10
387.8084163334674
 20
-270.5765992386465
 30
0.0
 10
382.5445822409225
 20
-277.0061462139816
 30
0.0
 10
377.2146120442782
 20
-283.380366905428
 30
0.0
 10
376.4093660115975
 20
-284.3433479262046
 30
0.0
 10
376.4175991323629
 20
-284.9518760774979
 30
0.0
 10
377.1556340252773
 20
-285.9469115932393
 30
0.0
 10
383.5644747060146
 20
-294.5876757740075
 30
0.0
 10
389.9153128559685
 20
-303.2714784306465
 30
0.0
 10
396.2797688217756
 20
-311.9451165152337
 30
0.0
 10
396.302036049754
 20
-311.9754626634558
 30
0.0
 10
396.3241510636631
 20
-312.0059204471833
 30
0.0
 10
396.3462115963343
 20
-312.0366011067252
 30
0.0
  0
SPLINE
  5
46
330
1F
100
AcDbEntity
  8
Calque 1
 62
     7
420
 16777215
370
   158
100
AcDbSpline
210
0.0
220
0.0
230
1.0
 70
    11
 71
     3
 72
    41
 73
    37
 74
     0
 42
0.0000000001
 43
0.0000000001
 12
1.0
 22
0.0
 32
0.0
 13
1.0
 23
0.0
 33
0.0
 40
0.0
 40
0.0
 40
0.0
 40
0.0
 40
1.0
 40
1.0
 40
1.0
 40
2.0
 40
2.0
 40
2.0
 40
3.0
 40
3.0
 40
3.0
 40
4.0
 40
4.0
 40
4.0
 40
5.0
 40
5.0
 40
5.0
 40
6.0
 40
6.0
 40
6.0
 40
7.0
 40
7.0
 40
7.0
 40
8.0
 40
8.0
 40
8.0
 40
9.0
 40
9.0
 40
9.0
 40
10.0
 40
10.0
 40
10.0
 40
11.0
 40
11.0
 40
11.0
 40
12.0
 40
12.0
 40
12.0
 40
12.0
 10
265.1225007323693
 20
-311.6328112988446
 30
0.0
 10
265.4986886078202
 20
-312.6125316597947
 30
0.0
 10
264.766901621907
 20
-313.6649172282969
 30
0.0
 10
263.7174533728568
 20
-313.6704477805451
 30
0.0
 10
261.700888473099
 20
-313.6810750006571
 30
0.0
 10
259.7861446558077
 20
-313.689894256534
 30
0.0
 10
257.8762876706118
 20
-313.597844715039
 30
0.0
 10
257.5015636179491
 20
-313.5797591905006
 30
0.0
 10
257.0401381704722
 20
-312.7371337262765
 30
0.0
 10
256.8359294622235
 20
-312.1943924021817
 30
0.0
 10
253.2058840928274
 20
-302.5465356893141
 30
0.0
 10
249.6104100266574
 20
-292.8856464733037
 30
0.0
 10
246.0053956854994
 20
-283.2283275388526
 30
0.0
 10
243.7194170332105
 20
-277.1045142989761
 30
0.0
 10
241.4277415296022
 20
-270.9828471299858
 30
0.0
 10
239.1457331144427
 20
-264.8575511502298
 30
0.0
 10
239.1433949666797
 20
-264.8512748684091
 30
0.0
 10
239.1410617197693
 20
-264.8449967585265
 30
0.0
 10
239.1387331972666
 20
-264.8387165258277
 30
0.0
 10
238.7402155480558
 20
-263.7638789120867
 30
0.0
 10
239.5492752277146
 20
-262.6216683950138
 30
0.0
 10
240.6955903733579
 20
-262.6140985010399
 30
0.0
 10
242.399463668415
 20
-262.6028466736195
 30
0.0
 10
244.0116200210133
 20
-262.5979073579009
 30
0.0
 10
245.6184585200506
 20
-262.6878930060057
 30
0.0
 10
246.0201060481491
 20
-262.7103877307381
 30
0.0
 10
246.5239457243054
 20
-263.4988151504815
 30
0.0
 10
246.7306516824472
 20
-264.0306310228812
 30
0.0
 10
251.2933223389498
 20
-275.7691314523058
 30
0.0
 10
255.8207193407086
 20
-287.5213277158554
 30
0.0
 10
260.3547886820172
 20
-299.2709486943415
 30
0.0
 10
261.9425518713595
 20
-303.3854738135404
 30
0.0
 10
263.5316222149423
 20
-307.4995111893454
 30
0.0
 10
265.1158151173267
 20
-311.6154214997447
 30
0.0
 10
265.1180460589326
 20
-311.6212170616894
 30
0.0
 10
265.1202745501118
 20
-311.6270135679057
 30
0.0
 10
265.1225007323693
 20
-311.6328112988446
 30
0.0
  0
SPLINE
  5
47
330
1F
100
AcDbEntity
  8
Calque 1
 62
     7
420
 16777215
370
   158
100
AcDbSpline
210
0.0
220
0.0
230
1.0
 70
    11
 71
     3
 72
    35
 73
    31
 74
     0
 42
0.0000000001
 43
0.0000000001
 12
1.0
 22
0.0
 32
0.0
 13
1.0
 23
0.0
 33
0.0
 40
0.0
 40
0.0
 40
0.0
 40
0.0
 40
1.0
 40
1.0
 40
1.0
 40
2.0
 40
2.0
 40
2.0
 40
3.0
 40
3.0
 40
3.0
 40
4.0
 40
4.0
 40
4.0
 40
5.0
 40
5.0
 40
5.0
 40
6.0
 40
6.0
 40
6.0
 40
7.0
 40
7.0
 40
7.0
 40
8.0
 40
8.0
 40
8.0
 40
9.0
 40
9.0
 40
9.0
 40
10.0
 40
10.0
 40
10.0
 40
10.0
 10
352.7170783146931
 20
-288.049222131453
 30
0.0
 10
352.7168832170462
 20
-280.2221894970476
 30
0.0
 10
352.7526055964074
 20
-272.3948642166167
 30
0.0
 10
352.6859797495662
 20
-264.568397364503
 30
0.0
 10
352.673044775507
 20
-263.0473013482512
 30
0.0
 10
353.0910037326744
 20
-262.5808605798574
 30
0.0
 10
354.6616165730809
 20
-262.5671277449859
 30
0.0
 10
356.367973929991
 20
-262.5522080122484
 30
0.0
 10
357.8074981192932
 20
-262.5651193586313
 30
0.0
 10
359.29161542793
 20
-262.5809016180625
 30
0.0
 10
360.305845885849
 20
-262.5605323564616
 30
0.0
 10
360.7040803467747
 20
-263.0022296255597
 30
0.0
 10
360.6962989843314
 20
-264.0046440555559
 30
0.0
 10
360.6942379696326
 20
-264.2701490862034
 30
0.0
 10
360.6942309492513
 20
-264.5368696323804
 30
0.0
 10
360.6942309492513
 20
-264.8030994792103
 30
0.0
 10
360.6941724199692
 20
-280.403903170894
 30
0.0
 10
360.6943480078451
 20
-296.0047263723075
 30
0.0
 10
360.6936456563147
 20
-311.6055300639783
 30
0.0
 10
360.6935481074906
 20
-313.7065919791605
 30
0.0
 10
360.6914410529033
 20
-313.707645504855
 30
0.0
 10
358.5791188171546
 20
-313.7105524554044
 30
0.0
 10
357.1947449259336
 20
-313.7124448997191
 30
0.0
 10
355.8564074825518
 20
-313.7389320131491
 30
0.0
 10
354.4271872391384
 20
-313.7298475835337
 30
0.0
 10
353.1179649619669
 20
-313.811047101543
 30
0.0
 10
352.6800682908431
 20
-313.3567629169156
 30
0.0
 10
352.6895500365503
 20
-312.0093230538525
 30
0.0
 10
352.745777178713
 20
-304.0229544118847
 30
0.0
 10
352.7172929221096
 20
-296.0359809681447
 30
0.0
 10
352.7170783146931
 20
-288.049222131453
 30
0.0
  0
SPLINE
  5
48
330
1F
100
AcDbEntity
  8
Calque 1
 62
     7
420
 16777215
370
   158
100
AcDbSpline
210
0.0
220
0.0
230
1.0
 70
    11
 71
     3
 72
    44
 73
    40
 74
     0
 42
0.0000000001
 43
0.0000000001
 12
1.0
 22
0.0
 32
0.0
 13
1.0
 23
0.0
 33
0.0
 40
0.0
 40
0.0
 40
0.0
 40
0.0
 40
1.0
 40
1.0
 40
1.0
 40
2.0
 40
2.0
 40
2.0
 40
3.0
 40
3.0
 40
3.0
 40
4.0
 40
4.0
 40
4.0
 40
5.0
 40
5.0
 40
5.0
 40
6.0
 40
6.0
 40
6.0
 40
7.0
 40
7.0
 40
7.0
 40
8.0
 40
8.0
 40
8.0
 40
9.0
 40
9.0
 40
9.0
 40
10.0
 40
10.0
 40
10.0
 40
11.0
 40
11.0
 40
11.0
 40
12.0
 40
12.0
 40
12.0
 40
13.0
 40
13.0
 40
13.0
 40
13.0
 10
241.4366467896261
 20
-292.4311788970542
 30
0.0
 10
241.7060122265792
 20
-293.1218424371331
 30
0.0
 10
241.195294867891
 20
-293.8714238371558
 30
0.0
 10
240.4539697617035
 20
-293.8749449038813
 30
0.0
 10
238.4179435600082
 20
-293.8846154034384
 30
0.0
 10
236.586644112354
 20
-293.9038701927523
 30
0.0
 10
234.757450490673
 20
-293.8505589578798
 30
0.0
 10
233.6743561424963
 20
-293.8190117160144
 30
0.0
 10
233.1743989095259
 20
-294.2036461459111
 30
0.0
 10
232.8063276866555
 20
-295.2439832668305
 30
0.0
 10
230.8378021724459
 20
-300.8079256350688
 30
0.0
 10
228.7454384261358
 20
-306.3280881574645
 30
0.0
 10
226.77776158667
 20
-311.8923231717521
 30
0.0
 10
226.3026988136271
 20
-313.2357050098729
 30
0.0
 10
225.6745136514592
 20
-313.861031043162
 30
0.0
 10
224.1527422415639
 20
-313.7486159488241
 30
0.0
 10
222.4846385307352
 20
-313.7586538505918
 30
0.0
 10
220.9121658122426
 20
-313.730120176875
 30
0.0
 10
219.1613616387797
 20
-313.7171225239625
 30
0.0
 10
218.4256732653902
 20
-313.7116609067963
 30
0.0
 10
217.9160145963078
 20
-312.9739343885169
 30
0.0
 10
218.1741954213903
 20
-312.2850160811946
 30
0.0
 10
218.9113909211677
 20
-310.3179161785972
 30
0.0
 10
219.5799985031895
 20
-308.5220372580208
 30
0.0
 10
220.2689040966651
 20
-306.733968689016
 30
0.0
 10
222.6012281952444
 20
-300.6803904959297
 30
0.0
 10
224.9764250019912
 20
-294.6430444025455
 30
0.0
 10
227.2590967491404
 20
-288.5708734318162
 30
0.0
 10
227.7614007667132
 20
-287.2347041613581
 30
0.0
 10
228.4329379776205
 20
-287.2622920521108
 30
0.0
 10
230.2581618710255
 20
-287.2010234265507
 30
0.0
 10
232.9139035797271
 20
-287.1118762019701
 30
0.0
 10
235.1743134637548
 20
-287.1118762019701
 30
0.0
 10
237.2225557836805
 20
-287.1767537926269
 30
0.0
 10
238.711655906564
 20
-287.2239206865418
 30
0.0
 10
239.4713841376507
 20
-287.184925975038
 30
0.0
 10
239.8866847171934
 20
-288.3526960628374
 30
0.0
 10
240.355312602773
 20
-289.6704637089191
 30
0.0
 10
240.8677985300249
 20
-290.9726296593037
 30
0.0
 10
241.4366467896261
 20
-292.4311788970542
 30
0.0
  0
ENDSEC
  0
SECTION
  2
OBJECTS
  0
DICTIONARY
  5
C
330
0
100
AcDbDictionary
281
     1
  3
ACAD_GROUP
350
D
  3
ACAD_LAYOUT
350
1A
  3
ACAD_MATERIAL
350
3B
  3
ACAD_MLEADERSTYLE
350
4A
  3
ACAD_MLINESTYLE
350
17
  3
ACAD_PLOTSETTINGS
350
19
  3
ACAD_PLOTSTYLENAME
350
E
  3
ACAD_TABLESTYLE
350
49
  3
ACAD_VISUALSTYLE
350
2A
  0
SUN
  5
3F
330
29
100
AcDbSun
 90
        1
290
     0
 63
     7
421
 16777215
 40
1.0
291
     1
 91
  2455826
 92
 54000000
292
     0
 70
     2
 71
   256
280
     1
  0
DICTIONARY
  5
D
102
{ACAD_REACTORS
330
C
102
}
330
C
100
AcDbDictionary
281
     1
  0
DICTIONARY
  5
1A
102
{ACAD_REACTORS
330
C
102
}
330
C
100
AcDbDictionary
281
     1
  3
Layout1
350
1E
  3
Layout2
350
26
  3
Model
350
22
  0
DICTIONARY
  5
3B
102
{ACAD_REACTORS
330
C
102
}
330
C
100
AcDbDictionary
281
     1
  3
ByBlock
350
3D
  3
ByLayer
350
3C
  3
Global
350
3E
  0
DICTIONARY
  5
4A
102
{ACAD_REACTORS
330
C
102
}
330
C
100
AcDbDictionary
281
     1
  0
DICTIONARY
  5
17
102
{ACAD_REACTORS
330
C
102
}
330
C
100
AcDbDictionary
281
     1
  3
Standard
350
18
  0
DICTIONARY
  5
19
102
{ACAD_REACTORS
330
C
102
}
330
C
100
AcDbDictionary
281
     1
  0
ACDBDICTIONARYWDFLT
  5
E
102
{ACAD_REACTORS
330
C
102
}
330
C
100
AcDbDictionary
281
     1
  3
Normal
350
F
100
AcDbDictionaryWithDefault
340
F
  0
DICTIONARY
  5
49
102
{ACAD_REACTORS
330
C
102
}
330
C
100
AcDbDictionary
281
     1
  0
DICTIONARY
  5
2A
102
{ACAD_REACTORS
330
C
102
}
330
C
100
AcDbDictionary
281
     1
  3
2dWireframe
350
2F
  3
3D Hidden
350
31
  3
3dWireframe
350
30
  3
Basic
350
32
  3
Brighten
350
36
  3
ColorChange
350
3A
  3
Conceptual
350
34
  3
Dim
350
35
  3
Facepattern
350
39
  3
Flat
350
2B
  3
FlatWithEdges
350
2C
  3
Gouraud
350
2D
  3
GouraudWithEdges
350
2E
  3
Linepattern
350
38
  3
Realistic
350
33
  3
Thicken
350
37
  0
LAYOUT
  5
1E
102
{ACAD_REACTORS
330
1A
102
}
330
1A
100
AcDbPlotSettings
  1

  2
none_device
  4

  6

 40
0.0
 41
0.0
 42
0.0
 43
0.0
 44
0.0
 45
0.0
 46
0.0
 47
0.0
 48
0.0
 49
0.0
140
0.0
141
0.0
142
1.0
143
1.0
 70
   688
 72
     0
 73
     0
 74
     5
  7

 75
    16
 76
     0
 77
     2
 78
   300
147
1.0
148
0.0
149
0.0
100
AcDbLayout
  1
Layout1
 70
     1
 71
     1
 10
0.0
 20
0.0
 11
12.0
 21
9.0
 12
0.0
 22
0.0
 32
0.0
 14
1.000000000000000E+20
 24
1.000000000000000E+20
 34
1.000000000000000E+20
 15
-1.000000000000000E+20
 25
-1.000000000000000E+20
 35
-1.000000000000000E+20
146
0.0
 13
0.0
 23
0.0
 33
0.0
 16
1.0
 26
0.0
 36
0.0
 17
0.0
 27
1.0
 37
0.0
 76
     0
330
1B
  0
LAYOUT
  5
26
102
{ACAD_REACTORS
330
1A
102
}
330
1A
100
AcDbPlotSettings
  1

  2
none_device
  4

  6

 40
0.0
 41
0.0
 42
0.0
 43
0.0
 44
0.0
 45
0.0
 46
0.0
 47
0.0
 48
0.0
 49
0.0
140
0.0
141
0.0
142
1.0
143
1.0
 70
   688
 72
     0
 73
     0
 74
     5
  7

 75
    16
 76
     0
 77
     2
 78
   300
147
1.0
148
0.0
149
0.0
100
AcDbLayout
  1
Layout2
 70
     1
 71
     2
 10
0.0
 20
0.0
 11
0.0
 21
0.0
 12
0.0
 22
0.0
 32
0.0
 14
0.0
 24
0.0
 34
0.0
 15
0.0
 25
0.0
 35
0.0
146
0.0
 13
0.0
 23
0.0
 33
0.0
 16
1.0
 26
0.0
 36
0.0
 17
0.0
 27
1.0
 37
0.0
 76
     0
330
23
  0
LAYOUT
  5
22
102
{ACAD_REACTORS
330
1A
102
}
330
1A
100
AcDbPlotSettings
  1

  2
none_device
  4

  6

 40
0.0
 41
0.0
 42
0.0
 43
0.0
 44
0.0
 45
0.0
 46
0.0
 47
0.0
 48
0.0
 49
0.0
140
0.0
141
0.0
142
1.0
143
1.0
 70
  1712
 72
     0
 73
     0
 74
     0
  7

 75
     0
 76
     0
 77
     2
 78
   300
147
1.0
148
0.0
149
0.0
100
AcDbLayout
  1
Model
 70
     1
 71
     0
 10
0.0
 20
0.0
 11
12.0
 21
9.0
 12
0.0
 22
0.0
 32
0.0
 14
1.000000000000000E+20
 24
1.000000000000000E+20
 34
1.000000000000000E+20
 15
-1.000000000000000E+20
 25
-1.000000000000000E+20
 35
-1.000000000000000E+20
146
0.0
 13
0.0
 23
0.0
 33
0.0
 16
1.0
 26
0.0
 36
0.0
 17
0.0
 27
1.0
 37
0.0
 76
     0
330
1F
331
29
  0
MATERIAL
  5
3D
102
{ACAD_REACTORS
330
3B
102
}
330
3B
100
AcDbMaterial
  1
ByBlock
 72
     1
 94
      127
  0
MATERIAL
  5
3C
102
{ACAD_REACTORS
330
3B
102
}
330
3B
100
AcDbMaterial
  1
ByLayer
 72
     1
 94
      127
  0
MATERIAL
  5
3E
102
{ACAD_REACTORS
330
3B
102
}
330
3B
100
AcDbMaterial
  1
Global
 72
     1
 94
      127
  0
MLINESTYLE
  5
18
102
{ACAD_REACTORS
330
17
102
}
330
17
100
AcDbMlineStyle
  2
Standard
 70
     0
  3

 62
   256
 51
90.0
 52
90.0
 71
     2
 49
0.5
 62
   256
  6
BYLAYER
 49
-0.5
 62
   256
  6
BYLAYER
  0
ACDBPLACEHOLDER
  5
F
102
{ACAD_REACTORS
330
E
102
}
330
E
  0
VISUALSTYLE
  5
2F
102
{ACAD_REACTORS
330
2A
102
}
330
2A
100
AcDbVisualStyle
  2
2dWireframe
 70
     4
177
     2
291
     0
 71
     0
176
     1
 72
     2
176
     1
 73
     0
176
     1
 90
        0
176
     1
 40
-0.6
176
     1
 41
-30.0
176
     1
 62
     5
 63
     7
421
 16777215
176
     1
 74
     1
176
     1
 91
        4
176
     1
 64
     7
176
     1
 65
   257
176
     1
 75
     1
176
     1
175
     1
176
     1
 42
1.0
176
     1
 92
        0
176
     1
 66
   257
176
     1
 43
1.0
176
     1
 76
     1
176
     1
 77
     6
176
     1
 78
     2
176
     1
 67
     7
176
     1
 79
     5
176
     1
170
     0
176
     1
171
     0
176
     1
290
     0
176
     1
 93
        1
176
     1
 44
0.0
176
     1
173
     0
176
     1
  0
VISUALSTYLE
  5
31
102
{ACAD_REACTORS
330
2A
102
}
330
2A
100
AcDbVisualStyle
  2
3D Hidden
 70
     6
177
     2
291
     0
 71
     1
176
     1
 72
     2
176
     1
 73
     2
176
     1
 90
        0
176
     1
 40
-0.6
176
     1
 41
-30.0
176
     1
 62
     5
 63
     7
421
 16777215
176
     1
 74
     2
176
     1
 91
        2
176
     1
 64
     7
176
     1
 65
   257
176
     1
 75
     2
176
     1
175
     1
176
     1
 42
40.0
176
     1
 92
        0
176
     1
 66
   257
176
     1
 43
1.0
176
     1
 76
     1
176
     1
 77
     6
176
     1
 78
     2
176
     1
 67
     7
176
     1
 79
     3
176
     1
170
     0
176
     1
171
     0
176
     1
290
     0
176
     1
 93
        1
176
     1
 44
0.0
176
     1
173
     0
176
     1
  0
VISUALSTYLE
  5
30
102
{ACAD_REACTORS
330
2A
102
}
330
2A
100
AcDbVisualStyle
  2
3dWireframe
 70
     5
177
     2
291
     0
 71
     0
176
     1
 72
     2
176
     1
 73
     0
176
     1
 90
        0
176
     1
 40
-0.6
176
     1
 41
-30.0
176
     1
 62
     5
 63
     7
421
 16777215
176
     1
 74
     1
176
     1
 91
        4
176
     1
 64
     7
176
     1
 65
   257
176
     1
 75
     1
176
     1
175
     1
176
     1
 42
1.0
176
     1
 92
        0
176
     1
 66
   257
176
     1
 43
1.0
176
     1
 76
     1
176
     1
 77
     6
176
     1
 78
     2
176
     1
 67
     7
176
     1
 79
     5
176
     1
170
     0
176
     1
171
     0
176
     1
290
     0
176
     1
 93
        1
176
     1
 44
0.0
176
     1
173
     0
176
     1
  0
VISUALSTYLE
  5
32
102
{ACAD_REACTORS
330
2A
102
}
330
2A
100
AcDbVisualStyle
  2
Basic
 70
     7
177
     2
291
     1
 71
     1
176
     1
 72
     0
176
     1
 73
     1
176
     1
 90
        0
176
     1
 40
-0.6
176
     1
 41
-30.0
176
     1
 62
     5
 63
     7
421
 16777215
176
     1
 74
     0
176
     1
 91
        4
176
     1
 64
     7
176
     1
 65
   257
176
     1
 75
     1
176
     1
175
     1
176
     1
 42
1.0
176
     1
 92
        8
176
     1
 66
     7
176
     1
 43
1.0
176
     1
 76
     1
176
     1
 77
     6
176
     1
 78
     2
176
     1
 67
     7
176
     1
 79
     5
176
     1
170
     0
176
     1
171
     0
176
     1
290
     0
176
     1
 93
        1
176
     1
 44
0.0
176
     1
173
     0
176
     1
  0
VISUALSTYLE
  5
36
102
{ACAD_REACTORS
330
2A
102
}
330
2A
100
AcDbVisualStyle
  2
Brighten
 70
    12
177
     2
291
     1
 71
     2
176
     1
 72
     2
176
     1
 73
     0
176
     1
 90
        0
176
     1
 40
-0.6
176
     1
 41
-30.0
176
     1
 62
     5
 63
     7
421
 16777215
176
     1
 74
     1
176
     1
 91
        4
176
     1
 64
     7
176
     1
 65
   257
176
     1
 75
     1
176
     1
175
     1
176
     1
 42
1.0
176
     1
 92
        8
176
     1
 66
     7
176
     1
 43
1.0
176
     1
 76
     1
176
     1
 77
     6
176
     1
 78
     2
176
     1
 67
     7
176
     1
 79
     5
176
     1
170
     0
176
     1
171
     0
176
     1
290
     0
176
     1
 93
        1
176
     1
 44
50.0
176
     1
173
     0
176
     1
  0
VISUALSTYLE
  5
3A
102
{ACAD_REACTORS
330
2A
102
}
330
2A
100
AcDbVisualStyle
  2
ColorChange
 70
    16
177
     2
291
     1
 71
     2
176
     1
 72
     2
176
     1
 73
     3
176
     1
 90
        0
176
     1
 40
-0.6
176
     1
 41
-30.0
176
     1
 62
     5
 63
     8
421
  8421504
176
     1
 74
     1
176
     1
 91
        4
176
     1
 64
     7
176
     1
 65
   257
176
     1
 75
     1
176
     1
175
     1
176
     1
 42
1.0
176
     1
 92
        8
176
     1
 66
     8
424
  8421504
176
     1
 43
1.0
176
     1
 76
     1
176
     1
 77
     6
176
     1
 78
     2
176
     1
 67
     7
176
     1
 79
     5
176
     1
170
     0
176
     1
171
     0
176
     1
290
     0
176
     1
 93
        1
176
     1
 44
0.0
176
     1
173
     0
176
     1
  0
VISUALSTYLE
  5
34
102
{ACAD_REACTORS
330
2A
102
}
330
2A
100
AcDbVisualStyle
  2
Conceptual
 70
     9
177
     2
291
     0
 71
     3
176
     1
 72
     2
176
     1
 73
     0
176
     1
 90
        0
176
     1
 40
-0.6
176
     1
 41
-30.0
176
     1
 62
     5
 63
     7
421
 16777215
176
     1
 74
     2
176
     1
 91
        2
176
     1
 64
     7
176
     1
 65
   257
176
     1
 75
     1
176
     1
175
     1
176
     1
 42
40.0
176
     1
 92
        8
176
     1
 66
     7
176
     1
 43
1.0
176
     1
 76
     1
176
     1
 77
     6
176
     1
 78
     2
176
     1
 67
     7
176
     1
 79
     3
176
     1
170
     0
176
     1
171
     0
176
     1
290
     0
176
     1
 93
        1
176
     1
 44
0.0
176
     1
173
     0
176
     1
  0
VISUALSTYLE
  5
35
102
{ACAD_REACTORS
330
2A
102
}
330
2A
100
AcDbVisualStyle
  2
Dim
 70
    11
177
     2
291
     1
 71
     2
176
     1
 72
     2
176
     1
 73
     0
176
     1
 90
        0
176
     1
 40
-0.6
176
     1
 41
-30.0
176
     1
 62
     5
 63
     7
421
 16777215
176
     1
 74
     1
176
     1
 91
        4
176
     1
 64
     7
176
     1
 65
   257
176
     1
 75
     1
176
     1
175
     1
176
     1
 42
1.0
176
     1
 92
        8
176
     1
 66
     7
176
     1
 43
1.0
176
     1
 76
     1
176
     1
 77
     6
176
     1
 78
     2
176
     1
 67
     7
176
     1
 79
     5
176
     1
170
     0
176
     1
171
     0
176
     1
290
     0
176
     1
 93
        1
176
     1
 44
-50.0
176
     1
173
     0
176
     1
  0
VISUALSTYLE
  5
39
102
{ACAD_REACTORS
330
2A
102
}
330
2A
100
AcDbVisualStyle
  2
Facepattern
 70
    15
177
     2
291
     1
 71
     2
176
     1
 72
     2
176
     1
 73
     0
176
     1
 90
        0
176
     1
 40
-0.6
176
     1
 41
-30.0
176
     1
 62
     5
 63
     7
421
 16777215
176
     1
 74
     1
176
     1
 91
        4
176
     1
 64
     7
176
     1
 65
   257
176
     1
 75
     1
176
     1
175
     1
176
     1
 42
1.0
176
     1
 92
        8
176
     1
 66
     7
176
     1
 43
1.0
176
     1
 76
     1
176
     1
 77
     6
176
     1
 78
     2
176
     1
 67
     7
176
     1
 79
     5
176
     1
170
     0
176
     1
171
     0
176
     1
290
     0
176
     1
 93
        1
176
     1
 44
0.0
176
     1
173
     0
176
     1
  0
VISUALSTYLE
  5
2B
102
{ACAD_REACTORS
330
2A
102
}
330
2A
100
AcDbVisualStyle
  2
Flat
 70
     0
177
     2
291
     1
 71
     2
176
     1
 72
     1
176
     1
 73
     1
176
     1
 90
        2
176
     1
 40
-0.6
176
     1
 41
30.0
176
     1
 62
     5
 63
     7
421
 16777215
176
     1
 74
     0
176
     1
 91
        4
176
     1
 64
     7
176
     1
 65
   257
176
     1
 75
     1
176
     1
175
     1
176
     1
 42
1.0
176
     1
 92
        8
176
     1
 66
     7
176
     1
 43
1.0
176
     1
 76
     1
176
     1
 77
     6
176
     1
 78
     2
176
     1
 67
     7
176
     1
 79
     5
176
     1
170
     0
176
     1
171
     0
176
     1
290
     0
176
     1
 93
       13
176
     1
 44
0.0
176
     1
173
     0
176
     1
  0
VISUALSTYLE
  5
2C
102
{ACAD_REACTORS
330
2A
102
}
330
2A
100
AcDbVisualStyle
  2
FlatWithEdges
 70
     1
177
     2
291
     1
 71
     2
176
     1
 72
     1
176
     1
 73
     1
176
     1
 90
        2
176
     1
 40
-0.6
176
     1
 41
30.0
176
     1
 62
     5
 63
     7
421
 16777215
176
     1
 74
     1
176
     1
 91
        4
176
     1
 64
     7
176
     1
 65
   257
176
     1
 75
     1
176
     1
175
     1
176
     1
 42
1.0
176
     1
 92
        0
176
     1
 66
   257
176
     1
 43
1.0
176
     1
 76
     1
176
     1
 77
     6
176
     1
 78
     2
176
     1
 67
     7
176
     1
 79
     5
176
     1
170
     0
176
     1
171
     0
176
     1
290
     0
176
     1
 93
       13
176
     1
 44
0.0
176
     1
173
     0
176
     1
  0
VISUALSTYLE
  5
2D
102
{ACAD_REACTORS
330
2A
102
}
330
2A
100
AcDbVisualStyle
  2
Gouraud
 70
     2
177
     2
291
     1
 71
     2
176
     1
 72
     2
176
     1
 73
     1
176
     1
 90
        2
176
     1
 40
-0.6
176
     1
 41
30.0
176
     1
 62
     5
 63
     7
421
 16777215
176
     1
 74
     0
176
     1
 91
        4
176
     1
 64
     7
176
     1
 65
   257
176
     1
 75
     1
176
     1
175
     1
176
     1
 42
1.0
176
     1
 92
        0
176
     1
 66
     7
176
     1
 43
1.0
176
     1
 76
     1
176
     1
 77
     6
176
     1
 78
     2
176
     1
 67
     7
176
     1
 79
     5
176
     1
170
     0
176
     1
171
     0
176
     1
290
     0
176
     1
 93
       13
176
     1
 44
0.0
176
     1
173
     0
176
     1
  0
VISUALSTYLE
  5
2E
102
{ACAD_REACTORS
330
2A
102
}
330
2A
100
AcDbVisualStyle
  2
GouraudWithEdges
 70
     3
177
     2
291
     1
 71
     2
176
     1
 72
     2
176
     1
 73
     1
176
     1
 90
        2
176
     1
 40
-0.6
176
     1
 41
30.0
176
     1
 62
     5
 63
     7
421
 16777215
176
     1
 74
     1
176
     1
 91
        4
176
     1
 64
     7
176
     1
 65
   257
176
     1
 75
     1
176
     1
175
     1
176
     1
 42
1.0
176
     1
 92
        0
176
     1
 66
   257
176
     1
 43
1.0
176
     1
 76
     1
176
     1
 77
     6
176
     1
 78
     2
176
     1
 67
     7
176
     1
 79
     5
176
     1
170
     0
176
     1
171
     0
176
     1
290
     0
176
     1
 93
       13
176
     1
 44
0.0
176
     1
173
     0
176
     1
  0
VISUALSTYLE
  5
38
102
{ACAD_REACTORS
330
2A
102
}
330
2A
100
AcDbVisualStyle
  2
Linepattern
 70
    14
177
     2
291
     1
 71
     2
176
     1
 72
     2
176
     1
 73
     0
176
     1
 90
        0
176
     1
 40
-0.6
176
     1
 41
-30.0
176
     1
 62
     5
 63
     7
421
 16777215
176
     1
 74
     1
176
     1
 91
        4
176
     1
 64
     7
176
     1
 65
   257
176
     1
 75
     7
176
     1
175
     7
176
     1
 42
1.0
176
     1
 92
        8
176
     1
 66
     7
176
     1
 43
1.0
176
     1
 76
     1
176
     1
 77
     6
176
     1
 78
     2
176
     1
 67
     7
176
     1
 79
     5
176
     1
170
     0
176
     1
171
     0
176
     1
290
     0
176
     1
 93
        1
176
     1
 44
0.0
176
     1
173
     0
176
     1
  0
VISUALSTYLE
  5
33
102
{ACAD_REACTORS
330
2A
102
}
330
2A
100
AcDbVisualStyle
  2
Realistic
 70
     8
177
     2
291
     0
 71
     2
176
     1
 72
     2
176
     1
 73
     0
176
     1
 90
        0
176
     1
 40
-0.6
176
     1
 41
-30.0
176
     1
 62
     5
 63
     7
421
 16777215
176
     1
 74
     1
176
     1
 91
        0
176
     1
 64
     7
176
     1
 65
   257
176
     1
 75
     1
176
     1
175
     1
176
     1
 42
1.0
176
     1
 92
        8
176
     1
 66
     8
424
  7895160
176
     1
 43
1.0
176
     1
 76
     1
176
     1
 77
     6
176
     1
 78
     2
176
     1
 67
     7
176
     1
 79
     5
176
     1
170
     0
176
     1
171
     0
176
     1
290
     0
176
     1
 93
       13
176
     1
 44
0.0
176
     1
173
     0
176
     1
  0
VISUALSTYLE
  5
37
102
{ACAD_REACTORS
330
2A
102
}
330
2A
100
AcDbVisualStyle
  2
Thicken
 70
    13
177
     2
291
     1
 71
     2
176
     1
 72
     2
176
     1
 73
     0
176
     1
 90
        0
176
     1
 40
-0.6
176
     1
 41
-30.0
176
     1
 62
     5
 63
     7
421
 16777215
176
     1
 74
     1
176
     1
 91
        4
176
     1
 64
     7
176
     1
 65
   257
176
     1
 75
     1
176
     1
175
     1
176
     1
 42
1.0
176
     1
 92
       12
176
     1
 66
     7
176
     1
 43
1.0
176
     1
 76
     1
176
     1
 77
     6
176
     1
 78
     2
176
     1
 67
     7
176
     1
 79
     5
176
     1
170
     0
176
     1
171
     0
176
     1
290
     0
176
     1
 93
        1
176
     1
 44
0.0
176
     1
173
     0
176
     1
  0
ENDSEC
  0
EOF
